<svg width="40" height="23" viewBox="0 0 40 23" fill="none" xmlns="http://www.w3.org/2000/svg">
<path d="M37.9889 13.0712C38.8173 13.0712 39.4889 12.3996 39.4889 11.5712C39.4889 10.7427 38.8173 10.0712 37.9889 10.0712V13.0712ZM0.928231 10.5105C0.342445 11.0963 0.342445 12.046 0.928231 12.6318L10.4742 22.1778C11.06 22.7636 12.0097 22.7636 12.5955 22.1778C13.1813 21.592 13.1813 20.6422 12.5955 20.0564L4.11021 11.5712L12.5955 3.08589C13.1813 2.5001 13.1813 1.55035 12.5955 0.964565C12.0097 0.378779 11.06 0.378779 10.4742 0.964565L0.928231 10.5105ZM37.9889 10.0712L1.98889 10.0712V13.0712L37.9889 13.0712V10.0712Z" fill="#D0D0D0"/>
</svg>
